<?xml version="1.0" standalone="no"?>
<!DOCTYPE svg PUBLIC "-//W3C//DTD SVG 20010904//EN"
 "http://www.w3.org/TR/2001/REC-SVG-20010904/DTD/svg10.dtd">
<svg version="1.0" xmlns="http://www.w3.org/2000/svg"
 width="763.000000pt" height="757.000000pt" viewBox="0 0 763.000000 757.000000"
 preserveAspectRatio="xMidYMid meet">

<g transform="translate(0.000000,757.000000) scale(0.100000,-0.100000)"
fill="#000000" stroke="none">
<path d="M3435 7173 c-367 -32 -828 -157 -1168 -317 -1127 -529 -1884 -1587
-2023 -2826 -16 -149 -19 -581 -4 -731 54 -533 234 -1063 515 -1514 68 -110
263 -375 330 -449 l35 -39 0 1956 0 1957 890 0 890 0 0 -305 0 -305 -480 0
-480 0 0 -215 0 -215 480 0 480 0 0 -295 0 -295 -478 0 -479 0 -6 -677 c-4
-372 -7 -1037 -7 -1479 l0 -802 68 -40 c392 -232 926 -403 1411 -452 134 -13
557 -13 697 1 529 51 1062 231 1505 507 605 377 1069 900 1360 1533 60 130
165 407 183 482 l6 27 -1215 0 -1216 0 -98 203 c-54 111 -155 318 -224 460
l-126 257 -150 0 -151 0 0 -460 0 -460 -405 0 -405 0 0 1265 0 1265 808 0
c488 0 841 -4 892 -10 433 -52 715 -375 697 -795 -6 -125 -23 -199 -71 -300
-71 -150 -173 -252 -327 -328 l-85 -42 112 -210 112 -210 984 -3 985 -2 7 46
c12 91 6 536 -9 674 -95 853 -483 1627 -1104 2204 -574 534 -1297 861 -2070
936 -94 9 -571 11 -666 3z m-265 -1848 l0 -35 -1025 0 -1025 0 0 35 0 35 1025
0 1025 0 0 -35z m1255 -2750 c48 -36 68 -85 63 -151 -5 -64 -37 -110 -92 -135
-54 -25 -93 -24 -146 4 -51 26 -90 89 -90 146 0 55 38 122 85 149 55 32 129
27 180 -13z m1525 5 c38 -27 69 -90 70 -140 0 -58 -38 -122 -90 -147 -24 -13
-58 -23 -75 -23 -17 0 -51 10 -75 23 -116 58 -118 229 -5 295 52 30 127 26
175 -8z m309 19 c35 -12 36 -17 19 -54 -8 -17 -17 -24 -27 -20 -41 16 -68 16
-80 1 -17 -20 -14 -23 57 -61 67 -36 86 -70 68 -125 -13 -41 -62 -70 -116 -70
-34 0 -120 33 -120 45 0 3 7 19 15 35 l15 29 45 -20 c35 -15 49 -17 65 -9 33
18 23 38 -30 65 -73 37 -96 74 -78 126 20 58 94 83 167 58z m-4029 -29 c0 -30
-1 -30 -55 -30 -54 0 -55 0 -55 -30 0 -29 1 -30 50 -30 l50 0 0 -35 0 -35 -50
0 -50 0 0 -65 0 -65 -40 0 -40 0 0 160 0 160 95 0 95 0 0 -30z m250 0 c0 -28
-1 -29 -57 -32 -55 -3 -58 -4 -61 -30 -3 -28 -2 -28 52 -28 l56 0 0 -35 0 -35
-55 0 c-54 0 -55 0 -55 -30 0 -28 1 -29 58 -32 56 -3 57 -3 60 -35 l3 -33
-100 0 -101 0 0 160 0 160 100 0 100 0 0 -30z m254 4 c38 -39 37 -100 -4 -139
l-30 -28 43 -51 c65 -77 65 -76 10 -76 -46 1 -49 2 -90 57 l-43 56 0 -57 0
-56 -40 0 -40 0 0 160 0 160 84 0 c77 0 85 -2 110 -26z m246 -64 l55 -89 3 89
3 90 39 0 40 0 0 -160 0 -160 -39 0 c-39 0 -40 2 -98 93 l-58 92 -3 -92 -3
-93 -39 0 -40 0 0 160 0 160 43 0 42 -1 55 -89z m438 -62 c34 -84 62 -156 62
-160 0 -5 -18 -8 -41 -8 -36 0 -41 3 -50 30 -11 29 -13 30 -70 30 -58 0 -60
-1 -70 -30 -10 -27 -15 -30 -54 -30 l-43 0 55 138 c30 75 59 147 64 160 7 17
16 22 47 22 l38 0 62 -152z m242 60 l60 -93 0 93 0 92 40 0 40 0 0 -160 0
-160 -39 0 c-39 0 -41 2 -100 93 l-61 92 0 -92 0 -93 -40 0 -40 0 0 160 0 160
40 0 c39 0 41 -1 100 -92z m390 69 c96 -64 99 -203 8 -269 -27 -19 -49 -24
-115 -27 l-83 -3 0 161 0 161 79 0 c64 0 84 -4 111 -23z m824 -3 c38 -39 37
-100 -4 -139 l-30 -28 43 -51 c65 -77 65 -76 10 -76 -46 1 -49 2 -90 57 l-43
56 0 -57 0 -56 -40 0 -40 0 0 160 0 160 84 0 c77 0 85 -2 110 -26z m326 -94
c25 -63 54 -134 63 -157 l17 -43 -44 0 c-41 0 -45 2 -51 30 -6 29 -8 30 -70
30 -61 0 -63 -1 -74 -30 -9 -27 -14 -30 -52 -30 -35 0 -40 3 -35 18 4 9 32 81
64 160 l57 142 39 -2 40 -3 46 -115z m241 35 c17 -47 33 -85 34 -85 1 0 17 38
35 85 l33 85 43 0 c36 0 44 -3 44 -18 0 -22 18 -223 24 -269 5 -32 4 -33 -34
-33 -45 0 -50 9 -50 90 0 62 -14 87 -24 45 -4 -14 -16 -50 -27 -80 -17 -45
-25 -55 -44 -55 -19 0 -27 10 -44 55 -11 30 -23 66 -27 81 -10 39 -24 9 -24
-53 0 -74 -6 -83 -50 -83 -38 0 -39 1 -34 33 6 46 24 247 24 269 0 15 8 18 44
18 l44 0 33 -85z m-2569 -352 c10 -9 18 -30 18 -46 0 -43 -25 -67 -72 -67
l-38 0 0 65 0 65 37 0 c20 0 45 -7 55 -17z m248 7 c0 -5 -16 -10 -35 -10 -28
0 -35 -4 -35 -20 0 -16 7 -20 33 -21 l32 -1 -30 -7 c-17 -3 -31 -14 -33 -24
-3 -14 4 -17 32 -17 20 0 36 -4 36 -10 0 -5 -20 -10 -45 -10 l-45 0 0 65 0 65
45 0 c25 0 45 -4 45 -10z m160 -35 c7 -25 16 -48 20 -50 4 -3 13 16 20 40 12
43 26 63 36 53 2 -3 -6 -33 -18 -67 -15 -41 -27 -61 -37 -59 -20 4 -66 128
-47 128 7 0 19 -20 26 -45z m300 35 c0 -5 -13 -10 -30 -10 -23 0 -30 -4 -30
-20 0 -15 7 -20 28 -21 l27 -2 -27 -4 c-41 -6 -39 -43 2 -43 17 0 30 -4 30
-10 0 -5 -20 -10 -45 -10 l-45 0 0 65 0 65 45 0 c25 0 45 -4 45 -10z m160 -49
l0 -60 38 -4 c34 -3 33 -4 -10 -5 l-48 -2 0 65 c0 37 4 65 10 65 6 0 10 -26
10 -59z m301 43 c7 -9 13 -31 13 -49 0 -18 -6 -40 -13 -49 -17 -21 -69 -20
-93 1 -22 20 -23 70 -1 95 20 22 76 24 94 2z m244 -24 c0 -32 -3 -35 -32 -38
-27 -3 -33 -7 -33 -28 0 -13 -4 -24 -10 -24 -6 0 -10 29 -10 66 l0 65 43 -3
c41 -3 42 -4 42 -38z m230 30 c-3 -5 -19 -10 -36 -10 -22 0 -29 -5 -29 -20 0
-16 7 -20 33 -22 l32 -1 -32 -4 c-25 -3 -33 -9 -33 -24 0 -15 7 -19 35 -19 19
0 35 -4 35 -10 0 -5 -20 -10 -45 -10 l-45 0 0 65 0 65 46 0 c27 0 43 -4 39
-10z m226 -6 c10 -12 10 -20 1 -35 -9 -14 -9 -25 -2 -39 13 -23 13 -40 1 -40
-5 0 -13 10 -17 23 -7 21 -21 37 -36 37 -5 0 -8 -13 -8 -30 0 -20 -5 -30 -15
-30 -12 0 -15 14 -15 65 l0 65 39 0 c23 0 44 -6 52 -16z"/>
<path d="M4271 2504 c-45 -57 -13 -154 50 -154 45 0 67 16 80 59 10 33 9 45
-7 78 -17 34 -23 38 -60 41 -35 3 -45 -1 -63 -24z"/>
<path d="M5800 2510 c-15 -15 -20 -33 -20 -70 0 -59 26 -90 76 -90 48 0 74 32
74 92 0 60 -24 88 -75 88 -22 0 -43 -8 -55 -20z"/>
<path d="M2620 2500 c0 -41 8 -47 41 -30 34 19 18 70 -23 70 -14 0 -18 -8 -18
-40z"/>
<path d="M3301 2449 c-6 -18 -11 -34 -11 -35 0 -2 14 -4 31 -4 26 0 30 3 24
18 -4 9 -10 25 -12 35 -8 26 -20 21 -32 -14z"/>
<path d="M3940 2440 c0 -87 1 -90 23 -90 43 1 77 45 77 100 0 38 -39 80 -75
80 -25 0 -25 0 -25 -90z"/>
<path d="M4760 2500 c0 -41 8 -47 41 -30 34 19 18 70 -23 70 -14 0 -18 -8 -18
-40z"/>
<path d="M5111 2489 c-1 -4 -8 -23 -16 -43 l-15 -36 30 0 c18 0 30 5 30 13 -1
13 -28 76 -29 66z"/>
<path d="M2800 2115 c0 -40 2 -45 23 -45 29 0 47 18 47 45 0 27 -18 45 -47 45
-21 0 -23 -5 -23 -45z"/>
<path d="M3962 2148 c-30 -30 -4 -82 40 -76 20 3 23 9 23 43 0 35 -3 40 -25
43 -14 2 -31 -3 -38 -10z"/>
<path d="M4220 2134 c0 -21 4 -25 23 -22 14 2 23 11 25 26 3 18 -1 22 -22 22
-21 0 -26 -5 -26 -26z"/>
<path d="M4680 2140 c0 -23 22 -27 39 -7 13 16 5 27 -21 27 -11 0 -18 -7 -18
-20z"/>
<path d="M3980 4400 l0 -231 309 3 309 3 44 31 c112 82 131 245 40 346 -68 76
-78 78 -409 78 l-293 0 0 -230z"/>
</g>
</svg>
